# xmcd CD database file
#
# Track frame offsets:
#	150
#	18823
#	34103
#	51316
#	72786
#	84827
#	100542
#	116467
#	132389
#	150693
#	164152
#	180190
#	198047
#	212309
#	229835
#	247922
#	265934
#	284156
#
# Disc length: 4028 seconds
#
# Revision: 0
# Processed by: cddbd v1.4PL0 Copyright (c) Steve Scherf et al.
# Submitted via: CDex 1.50beta8
#
DISCID=e80fba12
DTITLE=Various Artist - Top Hits USA RC75
DYEAR=2002
DGENRE=Country
TTITLE0=Shania Twain - I'm Gonna Getcha Good!
TTITLE1=Mark Wills - 19 Somethin'
TTITLE2=John Michael Montgomery - 'Til Nothing Comes Between Us (Single Edit)
TTITLE3=Kenny Chesney - A Lot Of Things Different
TTITLE4=Emerson Drive - Fall Into Me (No Vocal Intro)
TTITLE5=Terry Clark - I Just Wanna Be Mad
TTITLE6=Brooks and Dunn - Every River (Single Remix)
TTITLE7=Aaron Lines - You Can't Hide Beautiful (Single Edit)
TTITLE8=Brad Paisley - I Wish You'd Stay (Single Edit #1)
TTITLE9=Aaron Tippin - If Her Lovin' Don't Kill Me
TTITLE10=Lonestar - Unusually Unusual
TTITLE11=Anthony Smith - John J. Blanchard
TTITLE12=Tanya Tucker - A Memory Like I'm Gonna Be
TTITLE13=Radney Foster - Everyday Angel (Radio Edit)
TTITLE14=Andy Griggs - Practice Life (Single Edit)
TTITLE15=Tommy Shane Steiner - What We're Gonna Do About It
TTITLE16=Rodney Atkins - My Old Man
TTITLE17=Blake Shelton - The Baby
EXTD=YEAR: 2002
EXTT0=
EXTT1=
EXTT2=
EXTT3=
EXTT4=
EXTT5=
EXTT6=
EXTT7=
EXTT8=
EXTT9=
EXTT10=
EXTT11=
EXTT12=
EXTT13=
EXTT14=
EXTT15=
EXTT16=
EXTT17=
PLAYORDER=
